<svg width="74" height="66" viewBox="0 0 74 66" fill="none" xmlns="http://www.w3.org/2000/svg">
<path d="M1.25 55.5133C1.25 53.4422 2.92893 51.7633 5 51.7633H25.3C31.3475 51.7633 36.25 56.6658 36.25 62.7133C36.25 63.7074 35.4441 64.5133 34.45 64.5133H5C2.92893 64.5133 1.25 62.8343 1.25 60.7633V55.5133Z" stroke="#3AA6D0" stroke-width="2.5"/>
<path d="M5.58398 51.5133L12.584 24.3883" stroke="#3AA6D0" stroke-width="2.5"/>
<path d="M22.959 52.0133C18.6866 46.9749 24.209 24.2633 27.584 24.1383" stroke="#3AA6D0" stroke-width="2.5"/>
<path d="M11.709 29.8883H13.8363C14.0008 29.8883 14.165 29.9077 14.3237 29.951C16.7517 30.6135 17.2384 31.6138 16.3604 34.4294C16.3432 34.4844 16.3282 34.5391 16.3155 34.5953C16.1491 35.33 14.8994 40.8 14.084 43.0133C13.2435 45.2947 13.0777 45.1884 11.8637 45.3649C11.7611 45.3799 11.6569 45.3883 11.5531 45.3883H7.08398M23.834 31.3883H28.1088C28.9859 31.3883 29.7606 30.8168 30.0196 29.9789L30.9083 27.1039C31.3059 25.8173 30.3441 24.5133 28.9974 24.5133H26.459" stroke="#3AA6D0" stroke-width="2.5"/>
<path d="M34.9511 2.01328L12.959 2.01328C8.08398 2.01327 8.08398 2.01327 8.08398 6.26328V20.7633C8.08398 24.1383 8.70898 24.1383 12.959 24.1383H36.584C39.459 24.1383 39.459 23.3883 39.459 19.8883V5.38828C39.459 2.01974 38.4402 1.94557 34.9789 2.01289C34.9659 2.01314 34.9642 2.01328 34.9511 2.01328Z" stroke="#3AA6D0" stroke-width="2.5"/>
<path d="M7.33398 5.26328H3.83398C2.72941 5.26328 1.83398 6.15871 1.83398 7.26328V18.0133C1.83398 19.1178 2.72941 20.0133 3.83398 20.0133H7.33398" stroke="#3AA6D0" stroke-width="2.5"/>
<path d="M40.084 5.13828H43.084C44.1886 5.13828 45.084 6.03371 45.084 7.13828V18.0133C45.084 19.1178 44.1886 20.0133 43.084 20.0133H40.084" stroke="#3AA6D0" stroke-width="2.5"/>
<path d="M45.834 9.38828H48.209C49.3136 9.38828 50.209 10.2837 50.209 11.3883V14.1383C50.209 15.2428 49.3136 16.1383 48.209 16.1383H45.834" stroke="#3AA6D0" stroke-width="2.5"/>
<mask id="path-9-inside-1_68_1864" fill="white">
<path d="M50.209 8.20078C50.209 7.64849 50.6567 7.20078 51.209 7.20078H56.334C59.0954 7.20078 61.334 9.43935 61.334 12.2008V13.0758C61.334 15.8372 59.0954 18.0758 56.334 18.0758H51.209C50.6567 18.0758 50.209 17.6281 50.209 17.0758V8.20078Z"/>
</mask>
<path d="M50.209 8.20078C50.209 7.64849 50.6567 7.20078 51.209 7.20078H56.334C59.0954 7.20078 61.334 9.43935 61.334 12.2008V13.0758C61.334 15.8372 59.0954 18.0758 56.334 18.0758H51.209C50.6567 18.0758 50.209 17.6281 50.209 17.0758V8.20078Z" stroke="#3AA6D0" stroke-width="5" mask="url(#path-9-inside-1_68_1864)"/>
<path d="M72.209 13.6383C72.8993 13.6383 73.459 13.0786 73.459 12.3883C73.459 11.6979 72.8993 11.1383 72.209 11.1383V13.6383ZM60.459 13.6383H72.209V11.1383H60.459V13.6383Z" fill="#3AA6D0"/>
<path d="M14.959 10.0133H25.584" stroke="#3AA6D0" stroke-width="2.5" stroke-linecap="round" stroke-linejoin="round"/>
<path d="M14.959 16.1383H25.584" stroke="#3AA6D0" stroke-width="2.5" stroke-linecap="round" stroke-linejoin="round"/>
</svg>
