<svg width="73" height="66" viewBox="0 0 73 66" fill="none" xmlns="http://www.w3.org/2000/svg">
<path fill-rule="evenodd" clip-rule="evenodd" d="M70.5 34.25H2.5V63.25H70.5V34.25ZM0 31.75V65.75H73V31.75H0Z" fill="#3AA6D0"/>
<path fill-rule="evenodd" clip-rule="evenodd" d="M8.43277 0H24.5672L29.5672 31.5H35.25V16H43.25V31.5H48.75V16H56.75V31.5H62.25V16H70.25V32.75H67.75V18.5H64.75V34H54.25V18.5H51.25V34H40.75V18.5H37.75V34H27.4328L22.4328 2.5H10.5672L5.73455 32.946L3.26546 32.554L8.43277 0Z" fill="#3AA6D0"/>
<path fill-rule="evenodd" clip-rule="evenodd" d="M24 7.5H8.5V5H24V7.5Z" fill="#3AA6D0"/>
<path fill-rule="evenodd" clip-rule="evenodd" d="M25 13H8V10.5H25V13Z" fill="#3AA6D0"/>
<path fill-rule="evenodd" clip-rule="evenodd" d="M25.5 18.5H7V16H25.5V18.5Z" fill="#3AA6D0"/>
<path fill-rule="evenodd" clip-rule="evenodd" d="M26.5 24H6V21.5H26.5V24Z" fill="#3AA6D0"/>
<path fill-rule="evenodd" clip-rule="evenodd" d="M27.5 29H5.5V26.5H27.5V29Z" fill="#3AA6D0"/>
<path fill-rule="evenodd" clip-rule="evenodd" d="M10.5 41.25H7.5V44.25H10.5V41.25ZM5 38.75V46.75H13V38.75H5Z" fill="#3AA6D0"/>
<path fill-rule="evenodd" clip-rule="evenodd" d="M10.5 53.25H7.5V56.25H10.5V53.25ZM5 50.75V58.75H13V50.75H5Z" fill="#3AA6D0"/>
<path fill-rule="evenodd" clip-rule="evenodd" d="M23.5 41.25H20.5V44.25H23.5V41.25ZM18 38.75V46.75H26V38.75H18Z" fill="#3AA6D0"/>
<path fill-rule="evenodd" clip-rule="evenodd" d="M23.5 53.25H20.5V56.25H23.5V53.25ZM18 50.75V58.75H26V50.75H18Z" fill="#3AA6D0"/>
<path fill-rule="evenodd" clip-rule="evenodd" d="M36.5 41.25H33.5V44.25H36.5V41.25ZM31 38.75V46.75H39V38.75H31Z" fill="#3AA6D0"/>
<path fill-rule="evenodd" clip-rule="evenodd" d="M36.5 53.25H33.5V56.25H36.5V53.25ZM31 50.75V58.75H39V50.75H31Z" fill="#3AA6D0"/>
<path fill-rule="evenodd" clip-rule="evenodd" d="M49.5 41.25H46.5V44.25H49.5V41.25ZM44 38.75V46.75H52V38.75H44Z" fill="#3AA6D0"/>
<path fill-rule="evenodd" clip-rule="evenodd" d="M49.5 53.25H46.5V56.25H49.5V53.25ZM44 50.75V58.75H52V50.75H44Z" fill="#3AA6D0"/>
<path fill-rule="evenodd" clip-rule="evenodd" d="M62.5 41.25H59.5V44.25H62.5V41.25ZM57 38.75V46.75H65V38.75H57Z" fill="#3AA6D0"/>
<path fill-rule="evenodd" clip-rule="evenodd" d="M62.5 53.25H59.5V56.25H62.5V53.25ZM57 50.75V58.75H65V50.75H57Z" fill="#3AA6D0"/>
</svg>
